<svg width="97" height="34" viewBox="0 0 97 34" fill="none" xmlns="http://www.w3.org/2000/svg">
<rect width="97" height="34" rx="5" fill="#1F4451"/>
<path d="M22.8945 22.126C22.0985 22.126 21.4045 21.95 20.8125 21.598C20.2245 21.246 19.7665 20.734 19.4385 20.062C19.1145 19.386 18.9525 18.568 18.9525 17.608C18.9525 16.684 19.1105 15.886 19.4265 15.214C19.7465 14.542 20.2025 14.024 20.7945 13.66C21.3905 13.296 22.1005 13.114 22.9245 13.114C23.5205 13.114 24.0665 13.228 24.5625 13.456C25.0585 13.684 25.4565 14.024 25.7565 14.476C26.0605 14.928 26.2165 15.488 26.2245 16.156H24.5085C24.4965 15.8 24.4125 15.514 24.2565 15.298C24.1005 15.082 23.8965 14.926 23.6445 14.83C23.3925 14.734 23.1165 14.686 22.8165 14.686C22.4045 14.686 22.0365 14.794 21.7125 15.01C21.3925 15.226 21.1385 15.552 20.9505 15.988C20.7625 16.424 20.6685 16.972 20.6685 17.632C20.6685 18.332 20.7645 18.898 20.9565 19.33C21.1485 19.758 21.4085 20.07 21.7365 20.266C22.0645 20.458 22.4325 20.554 22.8405 20.554C23.2245 20.554 23.5385 20.498 23.7825 20.386C24.0265 20.27 24.2085 20.112 24.3285 19.912C24.4485 19.712 24.5125 19.484 24.5205 19.228H26.2365C26.2245 19.824 26.0765 20.34 25.7925 20.776C25.5125 21.208 25.1245 21.542 24.6285 21.778C24.1325 22.01 23.5545 22.126 22.8945 22.126ZM30.1251 22.09C29.5051 22.09 28.9651 21.96 28.5051 21.7C28.0451 21.44 27.6891 21.058 27.4371 20.554C27.1851 20.046 27.0591 19.424 27.0591 18.688C27.0591 17.992 27.1911 17.392 27.4551 16.888C27.7231 16.384 28.0911 15.998 28.5591 15.73C29.0271 15.458 29.5571 15.322 30.1491 15.322C30.7891 15.322 31.3371 15.458 31.7931 15.73C32.2531 15.998 32.6051 16.384 32.8491 16.888C33.0931 17.392 33.2151 17.992 33.2151 18.688C33.2151 19.424 33.0791 20.046 32.8071 20.554C32.5351 21.058 32.1651 21.44 31.6971 21.7C31.2331 21.96 30.7091 22.09 30.1251 22.09ZM30.1491 20.704C30.5571 20.704 30.8931 20.552 31.1571 20.248C31.4251 19.944 31.5591 19.424 31.5591 18.688C31.5591 18.004 31.4251 17.504 31.1571 17.188C30.8891 16.868 30.5451 16.708 30.1251 16.708C29.7171 16.708 29.3811 16.866 29.1171 17.182C28.8531 17.498 28.7211 18 28.7211 18.688C28.7211 19.392 28.8571 19.904 29.1291 20.224C29.4011 20.544 29.7411 20.704 30.1491 20.704ZM34.4866 22V15.454H35.9446L36.1006 17.92L36.0166 17.422C36.0646 17.062 36.1586 16.722 36.2986 16.402C36.4386 16.078 36.6486 15.816 36.9286 15.616C37.2126 15.416 37.5866 15.316 38.0506 15.316C38.6586 15.316 39.1386 15.51 39.4906 15.898C39.8426 16.282 40.0186 16.87 40.0186 17.662V22H38.3626V18.262C38.3626 17.866 38.3246 17.558 38.2486 17.338C38.1766 17.114 38.0666 16.956 37.9186 16.864C37.7746 16.772 37.5906 16.726 37.3666 16.726C37.0946 16.726 36.8486 16.81 36.6286 16.978C36.4126 17.146 36.2526 17.34 36.1486 17.56V22H34.4866ZM43.405 22.084C42.873 22.084 42.459 21.95 42.163 21.682C41.867 21.41 41.719 21.006 41.719 20.47L41.707 17.356C41.707 17.216 41.743 17.096 41.815 16.996C41.887 16.896 41.989 16.83 42.121 16.798L41.707 15.712V15.526L42.037 13.576H43.351V19.996C43.351 20.252 43.393 20.43 43.477 20.53C43.565 20.63 43.727 20.68 43.963 20.68C44.151 20.68 44.317 20.678 44.461 20.674C44.605 20.67 44.737 20.662 44.857 20.65V21.994C44.685 22.042 44.465 22.068 44.197 22.072C43.929 22.08 43.665 22.084 43.405 22.084ZM40.933 16.798V15.454H44.839V16.798H40.933ZM47.7259 22.072C47.3419 22.072 46.9959 22 46.6879 21.856C46.3839 21.712 46.1439 21.504 45.9679 21.232C45.7959 20.96 45.7099 20.638 45.7099 20.266C45.7099 19.874 45.7859 19.552 45.9379 19.3C46.0899 19.044 46.3019 18.842 46.5739 18.694C46.8459 18.542 47.1599 18.43 47.5159 18.358C47.7639 18.306 48.0199 18.264 48.2839 18.232C48.5519 18.196 48.8019 18.168 49.0339 18.148C49.2659 18.128 49.4539 18.112 49.5979 18.1V17.878C49.5979 17.45 49.5199 17.14 49.3639 16.948C49.2079 16.752 48.9399 16.654 48.5599 16.654C48.3159 16.654 48.1099 16.686 47.9419 16.75C47.7779 16.814 47.6539 16.93 47.5699 17.098C47.4859 17.266 47.4439 17.508 47.4439 17.824H45.8959C45.8519 17.252 45.9379 16.782 46.1539 16.414C46.3739 16.046 46.6959 15.774 47.1199 15.598C47.5479 15.418 48.0499 15.328 48.6259 15.328C48.9659 15.328 49.2899 15.366 49.5979 15.442C49.9099 15.514 50.1859 15.64 50.4259 15.82C50.6699 15.996 50.8619 16.238 51.0019 16.546C51.1459 16.854 51.2179 17.244 51.2179 17.716V22H49.5859L49.5979 20.5C49.5259 20.94 49.3419 21.312 49.0459 21.616C48.7499 21.92 48.3099 22.072 47.7259 22.072ZM48.2299 20.914C48.4339 20.914 48.6319 20.878 48.8239 20.806C49.0199 20.73 49.1879 20.626 49.3279 20.494C49.4719 20.362 49.5619 20.21 49.5979 20.038V18.928C49.4379 18.952 49.2639 18.98 49.0759 19.012C48.8879 19.044 48.7239 19.076 48.5839 19.108C48.1599 19.196 47.8619 19.318 47.6899 19.474C47.5219 19.626 47.4379 19.84 47.4379 20.116C47.4379 20.28 47.4699 20.422 47.5339 20.542C47.6019 20.662 47.6959 20.754 47.8159 20.818C47.9399 20.882 48.0779 20.914 48.2299 20.914ZM55.5382 22.114C54.8702 22.114 54.3042 21.972 53.8402 21.688C53.3762 21.4 53.0242 21 52.7842 20.488C52.5482 19.972 52.4302 19.376 52.4302 18.7C52.4302 17.996 52.5522 17.392 52.7962 16.888C53.0442 16.384 53.3962 15.998 53.8522 15.73C54.3082 15.462 54.8462 15.328 55.4662 15.328C56.0782 15.328 56.5882 15.436 56.9962 15.652C57.4042 15.868 57.7062 16.162 57.9022 16.534C58.1022 16.906 58.1902 17.324 58.1662 17.788H56.5762C56.5682 17.608 56.5402 17.448 56.4922 17.308C56.4442 17.168 56.3742 17.052 56.2822 16.96C56.1902 16.864 56.0762 16.792 55.9402 16.744C55.8042 16.696 55.6462 16.672 55.4662 16.672C54.9822 16.668 54.6302 16.84 54.4102 17.188C54.1942 17.532 54.0862 18.026 54.0862 18.67C54.0862 19.39 54.2122 19.916 54.4642 20.248C54.7202 20.576 55.0982 20.746 55.5982 20.758C55.7502 20.762 55.9042 20.73 56.0602 20.662C56.2202 20.59 56.3522 20.48 56.4562 20.332C56.5602 20.184 56.6082 19.998 56.6002 19.774H58.1842C58.1962 20.246 58.0902 20.658 57.8662 21.01C57.6422 21.362 57.3282 21.634 56.9242 21.826C56.5242 22.018 56.0622 22.114 55.5382 22.114ZM61.4167 22.084C60.8847 22.084 60.4707 21.95 60.1747 21.682C59.8787 21.41 59.7307 21.006 59.7307 20.47L59.7187 17.356C59.7187 17.216 59.7547 17.096 59.8267 16.996C59.8987 16.896 60.0007 16.83 60.1327 16.798L59.7187 15.712V15.526L60.0487 13.576H61.3627V19.996C61.3627 20.252 61.4047 20.43 61.4887 20.53C61.5767 20.63 61.7387 20.68 61.9747 20.68C62.1627 20.68 62.3287 20.678 62.4727 20.674C62.6167 20.67 62.7487 20.662 62.8687 20.65V21.994C62.6967 22.042 62.4767 22.068 62.2087 22.072C61.9407 22.08 61.6767 22.084 61.4167 22.084ZM58.9447 16.798V15.454H62.8507V16.798H58.9447ZM68.0273 22.132C67.4473 22.132 66.9893 21.936 66.6533 21.544C66.3173 21.148 66.1493 20.564 66.1493 19.792V15.448H67.8113V19.282C67.8113 19.646 67.8453 19.934 67.9133 20.146C67.9813 20.354 68.0833 20.502 68.2193 20.59C68.3593 20.678 68.5313 20.722 68.7353 20.722C69.0073 20.722 69.2533 20.638 69.4733 20.47C69.6973 20.302 69.8593 20.108 69.9593 19.888V15.448H71.6153V22H70.1693L70.0073 19.528L70.0913 20.026C70.0433 20.386 69.9473 20.726 69.8033 21.046C69.6633 21.366 69.4513 21.628 69.1673 21.832C68.8833 22.032 68.5033 22.132 68.0273 22.132ZM75.5143 22.102C74.9823 22.102 74.5183 22.024 74.1223 21.868C73.7263 21.712 73.4143 21.476 73.1863 21.16C72.9623 20.84 72.8383 20.432 72.8143 19.936H74.4223C74.4663 20.264 74.5843 20.502 74.7763 20.65C74.9683 20.794 75.2163 20.866 75.5203 20.866C75.7043 20.866 75.8743 20.846 76.0303 20.806C76.1863 20.766 76.3103 20.698 76.4023 20.602C76.4983 20.506 76.5463 20.374 76.5463 20.206C76.5463 20.078 76.5163 19.974 76.4563 19.894C76.3963 19.81 76.3063 19.74 76.1863 19.684C76.0703 19.624 75.9263 19.568 75.7543 19.516C75.5823 19.464 75.3843 19.406 75.1603 19.342C74.7643 19.226 74.4003 19.088 74.0683 18.928C73.7363 18.764 73.4703 18.548 73.2703 18.28C73.0703 18.012 72.9703 17.662 72.9703 17.23C72.9703 16.61 73.1983 16.14 73.6543 15.82C74.1103 15.496 74.7043 15.334 75.4362 15.334C75.8843 15.334 76.2883 15.396 76.6483 15.52C77.0083 15.644 77.3043 15.858 77.5363 16.162C77.7723 16.466 77.9223 16.888 77.9863 17.428L76.3903 17.422C76.3423 17.174 76.2663 16.988 76.1623 16.864C76.0623 16.736 75.9463 16.65 75.8143 16.606C75.6863 16.562 75.5503 16.54 75.4062 16.54C75.2463 16.54 75.1023 16.566 74.9743 16.618C74.8503 16.666 74.7543 16.738 74.6863 16.834C74.6183 16.93 74.5843 17.046 74.5843 17.182C74.5843 17.35 74.6323 17.49 74.7283 17.602C74.8283 17.714 74.9783 17.812 75.1783 17.896C75.3823 17.976 75.6363 18.062 75.9403 18.154C76.1643 18.214 76.4043 18.284 76.6603 18.364C76.9163 18.444 77.1583 18.552 77.3863 18.688C77.6143 18.82 77.8003 19 77.9443 19.228C78.0923 19.452 78.1663 19.744 78.1663 20.104C78.1663 20.732 77.9263 21.222 77.4463 21.574C76.9663 21.926 76.3223 22.102 75.5143 22.102Z" fill="white"/>
</svg>
