<svg width="168" height="22" viewBox="0 0 168 22" fill="none" xmlns="http://www.w3.org/2000/svg">
<path d="M2.672 17V15.544H4.648C5.42133 15.544 6.09867 15.3787 6.68 15.048C7.26667 14.712 7.72267 14.216 8.048 13.56C8.37867 12.904 8.544 12.0933 8.544 11.128C8.544 10.1093 8.37867 9.28 8.048 8.64C7.72267 8 7.26667 7.528 6.68 7.224C6.09333 6.92 5.41333 6.768 4.64 6.768H2.608V5.368H4.688C5.744 5.368 6.67733 5.57067 7.488 5.976C8.304 6.376 8.944 7 9.408 7.848C9.872 8.696 10.104 9.784 10.104 11.112C10.104 12.4027 9.864 13.4853 9.384 14.36C8.90933 15.2347 8.264 15.8933 7.448 16.336C6.632 16.7787 5.71467 17 4.696 17H2.672ZM1.36 17V5.368H2.872V17H1.36ZM15.4506 17.12C14.6826 17.12 14.008 16.9467 13.4266 16.6C12.8506 16.2533 12.4 15.744 12.0746 15.072C11.7546 14.3947 11.5946 13.5653 11.5946 12.584C11.5946 11.656 11.7653 10.856 12.1066 10.184C12.448 9.512 12.912 8.99733 13.4986 8.64C14.0906 8.27733 14.752 8.096 15.4826 8.096C16.2773 8.096 16.9626 8.27733 17.5386 8.64C18.12 8.99733 18.568 9.512 18.8826 10.184C19.1973 10.856 19.3546 11.656 19.3546 12.584C19.3546 13.5653 19.1786 14.3947 18.8266 15.072C18.48 15.744 18.0106 16.2533 17.4186 16.6C16.8266 16.9467 16.1706 17.12 15.4506 17.12ZM15.4826 15.808C16.1973 15.808 16.768 15.5413 17.1946 15.008C17.6213 14.4747 17.8346 13.6667 17.8346 12.584C17.8346 11.5493 17.624 10.7627 17.2026 10.224C16.7866 9.68 16.2026 9.408 15.4506 9.408C14.7413 9.408 14.1733 9.68 13.7466 10.224C13.3253 10.7627 13.1146 11.5493 13.1146 12.584C13.1146 13.6293 13.328 14.4293 13.7546 14.984C14.1866 15.5333 14.7626 15.808 15.4826 15.808ZM24.7505 17.144C23.9398 17.144 23.2358 16.96 22.6385 16.592C22.0412 16.224 21.5798 15.7013 21.2545 15.024C20.9292 14.3467 20.7665 13.5493 20.7665 12.632C20.7665 11.6667 20.9318 10.848 21.2625 10.176C21.5985 9.504 22.0598 8.992 22.6465 8.64C23.2385 8.28267 23.9132 8.104 24.6705 8.104C25.3958 8.104 26.0118 8.24533 26.5185 8.528C27.0252 8.80533 27.4118 9.176 27.6785 9.64C27.9505 10.104 28.0945 10.616 28.1105 11.176H26.6465C26.6358 10.9627 26.5905 10.752 26.5105 10.544C26.4305 10.336 26.3105 10.1493 26.1505 9.984C25.9905 9.81333 25.7852 9.67733 25.5345 9.576C25.2892 9.46933 24.9932 9.416 24.6465 9.416C23.8412 9.41067 23.2465 9.69067 22.8625 10.256C22.4785 10.8213 22.2865 11.5973 22.2865 12.584C22.2865 13.64 22.4998 14.4453 22.9265 15C23.3532 15.5547 23.9932 15.832 24.8465 15.832C25.1772 15.832 25.4732 15.7573 25.7345 15.608C25.9958 15.4587 26.2038 15.264 26.3585 15.024C26.5185 14.784 26.6038 14.528 26.6145 14.256H28.0785C28.0625 14.8053 27.9078 15.2987 27.6145 15.736C27.3212 16.1733 26.9265 16.5173 26.4305 16.768C25.9345 17.0187 25.3745 17.144 24.7505 17.144ZM32.2985 17.176C31.5465 17.176 30.9412 16.92 30.4825 16.408C30.0238 15.896 29.7945 15.1813 29.7945 14.264V8.272H31.2825V13.864C31.2825 14.3013 31.3332 14.6613 31.4345 14.944C31.5358 15.2267 31.6958 15.4373 31.9145 15.576C32.1385 15.7093 32.4265 15.7787 32.7785 15.784C33.2585 15.784 33.6745 15.656 34.0265 15.4C34.3838 15.1387 34.6798 14.7787 34.9145 14.32V8.272H36.3945V17H35.1305L34.9625 13.968L35.1225 14.368C35.0532 14.88 34.9065 15.3493 34.6825 15.776C34.4638 16.1973 34.1572 16.536 33.7625 16.792C33.3732 17.048 32.8852 17.176 32.2985 17.176ZM39.0464 17V8.272H40.3104L40.4784 11.56L40.3344 10.896C40.4037 10.3787 40.5477 9.90933 40.7664 9.488C40.985 9.06133 41.2944 8.72267 41.6944 8.472C42.0944 8.216 42.5984 8.088 43.2064 8.088C43.9157 8.088 44.4784 8.288 44.8944 8.688C45.3157 9.08267 45.5744 9.69067 45.6704 10.512L45.7104 10.632V17H44.2224V11.56C44.2224 11.064 44.169 10.664 44.0624 10.36C43.961 10.056 43.7957 9.83467 43.5664 9.696C43.337 9.552 43.0357 9.48 42.6624 9.48C42.193 9.48 41.7797 9.61067 41.4224 9.872C41.065 10.1333 40.7717 10.4933 40.5424 10.952V17H39.0464ZM49.3984 17V11.552C49.3984 11.0613 49.345 10.664 49.2384 10.36C49.1317 10.056 48.9637 9.83467 48.7344 9.696C48.5104 9.552 48.2117 9.48 47.8384 9.48C47.369 9.48 46.9557 9.61067 46.5984 9.872C46.241 10.1333 45.945 10.4933 45.7104 10.952L45.6784 11.56L45.5344 10.992C45.593 10.4853 45.729 10.0107 45.9424 9.568C46.1557 9.12533 46.4597 8.768 46.8544 8.496C47.2544 8.224 47.7557 8.088 48.3584 8.088C49.153 8.088 49.7717 8.33867 50.2144 8.84C50.6624 9.34133 50.8864 10.0827 50.8864 11.064V17H49.3984ZM56.7883 17.12C55.9936 17.12 55.2949 16.9467 54.6923 16.6C54.0949 16.2533 53.6309 15.744 53.3003 15.072C52.9696 14.3947 52.8043 13.568 52.8043 12.592C52.8043 11.6533 52.9749 10.848 53.3163 10.176C53.6576 9.504 54.1269 8.98933 54.7243 8.632C55.3216 8.27467 56.0016 8.096 56.7643 8.096C57.5216 8.096 58.1696 8.25867 58.7083 8.584C59.2523 8.90933 59.6709 9.376 59.9643 9.984C60.2576 10.5867 60.4016 11.3093 60.3963 12.152C60.3963 12.3227 60.3909 12.464 60.3802 12.576C60.3696 12.688 60.3616 12.8053 60.3563 12.928H54.2923C54.3296 13.888 54.5696 14.616 55.0123 15.112C55.4603 15.6027 56.0309 15.848 56.7243 15.848C57.3109 15.848 57.7643 15.7253 58.0843 15.48C58.4096 15.2293 58.6149 14.9093 58.7003 14.52H60.1562C60.1189 15.0747 59.9483 15.5467 59.6443 15.936C59.3456 16.3253 58.9509 16.6213 58.4603 16.824C57.9696 17.0213 57.4123 17.12 56.7883 17.12ZM55.0843 11.808H58.9003C58.8896 11.0613 58.7056 10.4747 58.3483 10.048C57.9909 9.62133 57.4443 9.408 56.7083 9.408C55.9349 9.408 55.3483 9.672 54.9483 10.2C54.5483 10.7227 54.3296 11.4453 54.2923 12.368C54.3349 12.1493 54.4203 12.0027 54.5483 11.928C54.6816 11.848 54.8603 11.808 55.0843 11.808ZM62.3433 17V8.272H63.6073L63.7673 11.56L63.6233 10.896C63.6926 10.3787 63.8366 9.90933 64.0553 9.488C64.2793 9.06133 64.5913 8.72267 64.9913 8.472C65.3966 8.216 65.9059 8.088 66.5193 8.088C67.3299 8.088 67.9593 8.33867 68.4073 8.84C68.8606 9.336 69.0873 10.0773 69.0873 11.064V17H67.5993V11.552C67.5993 11.056 67.5433 10.656 67.4313 10.352C67.3246 10.048 67.1513 9.82667 66.9113 9.688C66.6766 9.54933 66.3619 9.48 65.9673 9.48C65.4926 9.48 65.0739 9.61067 64.7113 9.872C64.3539 10.1333 64.0606 10.4933 63.8313 10.952V17H62.3433ZM73.9269 17.12C73.2495 17.12 72.7322 16.9467 72.3749 16.6C72.0229 16.248 71.8469 15.7493 71.8469 15.104V10.368C71.8469 10.1973 71.8815 10.04 71.9509 9.896C72.0202 9.74667 72.1215 9.65067 72.2549 9.608L71.8469 8.616V8.344L72.2069 5.736H73.3189V14.856C73.3189 15.1973 73.3989 15.4293 73.5589 15.552C73.7189 15.6693 73.9935 15.728 74.3829 15.728C74.6655 15.728 74.9055 15.728 75.1029 15.728C75.3002 15.7227 75.5055 15.712 75.7189 15.696V17.008C75.4255 17.0613 75.1215 17.0933 74.8069 17.104C74.4975 17.1147 74.2042 17.12 73.9269 17.12ZM70.5749 9.608V8.272H75.6469V9.608H70.5749ZM80.338 17.136C79.7353 17.136 79.1833 17.0453 78.682 16.864C78.186 16.6773 77.7833 16.3893 77.474 16C77.1647 15.6053 76.9913 15.0987 76.954 14.48H78.426C78.522 15.0133 78.7327 15.3813 79.058 15.584C79.3887 15.7813 79.8073 15.88 80.314 15.88C80.6607 15.88 80.9727 15.8427 81.25 15.768C81.5327 15.6933 81.7567 15.568 81.922 15.392C82.0873 15.216 82.17 14.976 82.17 14.672C82.17 14.4373 82.1193 14.248 82.018 14.104C81.9167 13.96 81.7753 13.8427 81.594 13.752C81.4127 13.656 81.1993 13.5733 80.954 13.504C80.714 13.4347 80.4527 13.36 80.17 13.28C79.642 13.1253 79.154 12.9467 78.706 12.744C78.258 12.536 77.898 12.2587 77.626 11.912C77.354 11.5653 77.218 11.1013 77.218 10.52C77.218 9.80533 77.49 9.22667 78.034 8.784C78.578 8.336 79.2927 8.112 80.178 8.112C80.738 8.112 81.242 8.19733 81.69 8.368C82.1433 8.53867 82.5113 8.81333 82.794 9.192C83.082 9.56533 83.258 10.0667 83.322 10.696H81.858C81.8047 10.408 81.706 10.1653 81.562 9.968C81.4233 9.77067 81.2393 9.62133 81.01 9.52C80.7807 9.41867 80.5007 9.368 80.17 9.368C79.8927 9.368 79.642 9.408 79.418 9.488C79.194 9.56267 79.0153 9.68267 78.882 9.848C78.7487 10.0133 78.682 10.232 78.682 10.504C78.682 10.8027 78.762 11.0427 78.922 11.224C79.082 11.4053 79.3087 11.5573 79.602 11.68C79.8953 11.7973 80.2393 11.9147 80.634 12.032C80.938 12.128 81.2633 12.2293 81.61 12.336C81.9567 12.4373 82.282 12.5733 82.586 12.744C82.8953 12.9147 83.146 13.144 83.338 13.432C83.5353 13.7147 83.634 14.0853 83.634 14.544C83.634 15.3653 83.33 16.0027 82.722 16.456C82.114 16.9093 81.3193 17.136 80.338 17.136Z" fill="#B5BDCD"/>
</svg>
