<svg width="44" height="22" viewBox="0 0 44 22" fill="none" xmlns="http://www.w3.org/2000/svg">
<path d="M8.08 17V5.368H9.576V17H8.08ZM1.36 17V5.368H2.856V17H1.36ZM2.432 11.712V10.36H8.352L8.328 11.712H2.432ZM15.4038 17.12C14.6358 17.12 13.9611 16.9467 13.3798 16.6C12.8038 16.2533 12.3531 15.744 12.0278 15.072C11.7078 14.3947 11.5478 13.5653 11.5478 12.584C11.5478 11.656 11.7184 10.856 12.0598 10.184C12.4011 9.512 12.8651 8.99733 13.4518 8.64C14.0438 8.27733 14.7051 8.096 15.4358 8.096C16.2304 8.096 16.9158 8.27733 17.4918 8.64C18.0731 8.99733 18.5211 9.512 18.8358 10.184C19.1504 10.856 19.3078 11.656 19.3078 12.584C19.3078 13.5653 19.1318 14.3947 18.7798 15.072C18.4331 15.744 17.9638 16.2533 17.3718 16.6C16.7798 16.9467 16.1238 17.12 15.4038 17.12ZM15.4358 15.808C16.1504 15.808 16.7211 15.5413 17.1478 15.008C17.5744 14.4747 17.7878 13.6667 17.7878 12.584C17.7878 11.5493 17.5771 10.7627 17.1558 10.224C16.7398 9.68 16.1558 9.408 15.4038 9.408C14.6944 9.408 14.1264 9.68 13.6998 10.224C13.2784 10.7627 13.0678 11.5493 13.0678 12.584C13.0678 13.6293 13.2811 14.4293 13.7078 14.984C14.1398 15.5333 14.7158 15.808 15.4358 15.808ZM21.3276 17V8.272H22.5916L22.7596 11.56L22.6156 10.896C22.685 10.3787 22.829 9.90933 23.0476 9.488C23.2663 9.06133 23.5756 8.72267 23.9756 8.472C24.3756 8.216 24.8796 8.088 25.4876 8.088C26.197 8.088 26.7596 8.288 27.1756 8.688C27.597 9.08267 27.8556 9.69067 27.9516 10.512L27.9916 10.632V17H26.5036V11.56C26.5036 11.064 26.4503 10.664 26.3436 10.36C26.2423 10.056 26.077 9.83467 25.8476 9.696C25.6183 9.552 25.317 9.48 24.9436 9.48C24.4743 9.48 24.061 9.61067 23.7036 9.872C23.3463 10.1333 23.053 10.4933 22.8236 10.952V17H21.3276ZM31.6796 17V11.552C31.6796 11.0613 31.6263 10.664 31.5196 10.36C31.413 10.056 31.245 9.83467 31.0156 9.696C30.7916 9.552 30.493 9.48 30.1196 9.48C29.6503 9.48 29.237 9.61067 28.8796 9.872C28.5223 10.1333 28.2263 10.4933 27.9916 10.952L27.9596 11.56L27.8156 10.992C27.8743 10.4853 28.0103 10.0107 28.2236 9.568C28.437 9.12533 28.741 8.768 29.1356 8.496C29.5356 8.224 30.037 8.088 30.6396 8.088C31.4343 8.088 32.053 8.33867 32.4956 8.84C32.9436 9.34133 33.1676 10.0827 33.1676 11.064V17H31.6796ZM39.0695 17.12C38.2748 17.12 37.5762 16.9467 36.9735 16.6C36.3762 16.2533 35.9122 15.744 35.5815 15.072C35.2508 14.3947 35.0855 13.568 35.0855 12.592C35.0855 11.6533 35.2562 10.848 35.5975 10.176C35.9388 9.504 36.4082 8.98933 37.0055 8.632C37.6028 8.27467 38.2828 8.096 39.0455 8.096C39.8028 8.096 40.4508 8.25867 40.9895 8.584C41.5335 8.90933 41.9522 9.376 42.2455 9.984C42.5388 10.5867 42.6828 11.3093 42.6775 12.152C42.6775 12.3227 42.6722 12.464 42.6615 12.576C42.6508 12.688 42.6428 12.8053 42.6375 12.928H36.5735C36.6108 13.888 36.8508 14.616 37.2935 15.112C37.7415 15.6027 38.3122 15.848 39.0055 15.848C39.5922 15.848 40.0455 15.7253 40.3655 15.48C40.6908 15.2293 40.8962 14.9093 40.9815 14.52H42.4375C42.4002 15.0747 42.2295 15.5467 41.9255 15.936C41.6268 16.3253 41.2322 16.6213 40.7415 16.824C40.2508 17.0213 39.6935 17.12 39.0695 17.12ZM37.3655 11.808H41.1815C41.1708 11.0613 40.9868 10.4747 40.6295 10.048C40.2722 9.62133 39.7255 9.408 38.9895 9.408C38.2162 9.408 37.6295 9.672 37.2295 10.2C36.8295 10.7227 36.6108 11.4453 36.5735 12.368C36.6162 12.1493 36.7015 12.0027 36.8295 11.928C36.9628 11.848 37.1415 11.808 37.3655 11.808Z" fill="#436D7C"/>
</svg>
