<svg width="243" height="32" viewBox="0 0 243 32" fill="none" xmlns="http://www.w3.org/2000/svg">
<path d="M29.799 3.847L31.185 21.271C31.317 22.921 32.241 24.01 34.32 25H23.1C26.07 24.01 27.027 22.723 26.895 21.139L25.542 3.154L16.83 25.132H14.685L6.039 3.616L5.181 21.139C5.115 22.723 6.27 24.01 9.405 25H0C2.079 24.01 3.069 22.888 3.168 21.304L4.257 3.847C4.356 2.263 3.465 1.339 0.99 0.249998H9.339L16.929 19.456L24.552 0.249998H33C30.525 1.339 29.667 2.329 29.799 3.847ZM43.7379 5.695C40.9329 6.85 39.9429 7.873 40.5699 9.325L45.2559 20.347L49.3149 9.358C49.9089 7.774 49.1829 7.015 46.5429 5.695H54.0999C52.8789 6.454 51.8889 7.873 51.3939 9.16L45.5529 24.406C43.7379 29.059 41.3619 31.6 37.6989 31.6C36.9729 31.6 36.0159 31.567 35.1249 31.27V25.825C36.4119 27.64 37.6659 28.465 39.0189 28.465C40.3719 28.465 41.8569 27.607 43.1439 25.198L35.8839 9.292C35.3229 8.005 34.4649 6.685 33.0129 5.695H43.7379ZM60.8592 25C62.9052 24.01 63.8292 23.02 63.8292 21.535V3.715C63.8292 2.23 62.9052 1.24 60.8592 0.249998H72.3102C79.1742 0.249998 83.6292 4.705 83.6292 12.625C83.6292 20.545 79.1742 25 72.3102 25H60.8592ZM68.1192 22.855H71.4852C76.5342 22.855 79.1742 18.73 79.1742 12.625C79.1742 6.52 76.5342 2.395 71.4852 2.395H68.1192V22.855ZM103.268 15.364C103.268 21.469 99.5391 25.396 94.3581 25.396C89.1441 25.396 85.4481 21.469 85.4481 15.364C85.4481 9.259 89.1441 5.299 94.3581 5.299C99.5391 5.299 103.268 9.259 103.268 15.364ZM94.3581 23.185C97.0641 23.185 98.9781 20.38 98.9781 15.364C98.9781 10.315 97.0641 7.51 94.3581 7.51C91.6191 7.51 89.7381 10.315 89.7381 15.364C89.7381 20.38 91.6191 23.185 94.3581 23.185ZM119.92 6.619V11.635C118.435 8.83 116.785 7.51 114.673 7.51C111.802 7.51 109.426 10.315 109.426 14.935C109.426 19.423 112.33 22.294 115.861 22.294C117.973 22.294 119.755 21.403 120.91 19.984C120.481 23.581 117.445 25.396 114.376 25.396C109.36 25.396 105.235 21.634 105.235 15.364C105.235 9.424 109.36 5.299 114.706 5.299C116.488 5.299 118.6 5.827 119.92 6.619ZM141.861 25H135.261V20.446C134.304 23.482 132.126 25.396 129.486 25.396C125.856 25.396 123.876 22.789 123.876 18.07V8.005L121.236 6.355L128.001 5.431V18.334C128.001 21.37 129.156 22.525 131.301 22.525C133.347 22.525 135.096 21.205 135.096 18.169V8.005L132.126 6.355L139.221 5.431V21.7C139.221 23.02 139.782 24.01 141.861 25ZM165.449 25C167.165 24.01 167.759 23.02 167.759 21.7V12.559C167.759 9.49 166.505 8.17 164.459 8.17C162.479 8.17 160.829 9.49 160.829 12.559V21.7C160.829 23.02 161.39 24.01 163.139 25H154.394C156.11 24.01 156.704 23.02 156.704 21.7V12.559C156.704 9.49 155.45 8.17 153.404 8.17C151.424 8.17 149.774 9.49 149.774 12.559V21.7C149.774 23.02 150.335 24.01 152.084 25H143.009C145.055 24.01 145.649 23.02 145.649 21.7V8.005L143.009 6.355L149.609 5.464V10.282C150.533 7.246 152.909 5.299 155.219 5.299C158.123 5.299 159.938 7.114 160.565 10.249C161.687 6.883 164.096 5.299 166.274 5.299C169.904 5.299 171.884 8.104 171.884 12.79V21.7C171.884 23.02 172.445 24.01 174.524 25H165.449ZM191.596 15.364H179.551C179.716 19.621 182.488 22.294 186.019 22.294C188.131 22.294 190.21 21.304 191.365 19.885C191.101 23.317 187.768 25.396 184.534 25.396C179.419 25.396 175.36 21.634 175.36 15.364C175.36 8.995 179.551 5.299 184.006 5.299C188.527 5.299 191.695 8.929 191.695 13.945C191.695 14.341 191.695 14.803 191.596 15.364ZM183.94 7.51C181.663 7.51 179.782 9.688 179.551 14.044L187.801 13.549C187.603 9.754 186.217 7.51 183.94 7.51ZM204.574 25C206.455 24.01 207.049 23.02 207.049 21.7V12.559C207.049 9.49 205.729 8.17 203.584 8.17C201.505 8.17 199.789 9.49 199.789 12.559V21.7C199.789 23.02 200.35 24.01 202.264 25H193.024C195.07 24.01 195.664 23.02 195.664 21.7V8.005L193.024 6.355L199.624 5.464V10.282C200.548 7.246 202.759 5.299 205.399 5.299C209.029 5.299 211.174 8.104 211.174 12.79V21.7C211.174 23.02 211.735 24.01 213.814 25H204.574ZM216.628 7.51H213.328L216.859 5.464L220.753 0.018999V5.695H225.538V7.51H220.753V19.555C220.753 21.7 221.38 22.525 223.129 22.525C224.152 22.525 225.241 22.096 225.868 21.634C225.505 23.845 223.624 25.198 221.314 25.198C218.41 25.198 216.628 23.482 216.628 20.05V7.51ZM241.037 6.685V11.8C239.618 8.83 237.572 7.51 235.163 7.51C233.249 7.51 231.632 8.599 231.632 10.249C231.632 14.11 242.027 12.559 242.027 19.324C242.027 22.888 239.057 25.396 234.503 25.396C232.721 25.396 230.147 25 228.332 23.845V18.334C229.817 21.535 232.193 23.185 234.833 23.185C237.011 23.185 238.562 21.964 238.562 20.38C238.562 16.222 228.167 18.07 228.167 11.239C228.167 7.51 231.566 5.299 235.493 5.299C237.638 5.299 239.849 5.893 241.037 6.685Z" fill="#2A2A2A"/>
</svg>
